<svg width="512" height="512" viewBox="0 0 512 512" fill="none" xmlns="http://www.w3.org/2000/svg">
  <defs>
    <linearGradient id="bg" x1="24" y1="18" x2="474" y2="482" gradientUnits="userSpaceOnUse">
      <stop stop-color="#65747B"/>
      <stop offset="0.56" stop-color="#1C5669"/>
      <stop offset="1" stop-color="#0C3A4D"/>
    </linearGradient>
    <radialGradient id="glow" cx="0" cy="0" r="1" gradientUnits="userSpaceOnUse" gradientTransform="translate(256 248) rotate(90) scale(196)">
      <stop stop-color="#A3FCFF" stop-opacity="0.98"/>
      <stop offset="0.38" stop-color="#6AF2FF" stop-opacity="0.82"/>
      <stop offset="0.76" stop-color="#13C4F5" stop-opacity="0.32"/>
      <stop offset="1" stop-color="#13C4F5" stop-opacity="0"/>
    </radialGradient>
    <linearGradient id="brand" x1="160" y1="132" x2="352" y2="372" gradientUnits="userSpaceOnUse">
      <stop stop-color="#B9FCFF"/>
      <stop offset="0.48" stop-color="#4EDFF4"/>
      <stop offset="1" stop-color="#0A97E8"/>
    </linearGradient>
    <radialGradient id="core" cx="0" cy="0" r="1" gradientUnits="userSpaceOnUse" gradientTransform="translate(258 238) rotate(90) scale(128)">
      <stop stop-color="#D5FFFF" stop-opacity="0.95"/>
      <stop offset="0.72" stop-color="#56E9F7" stop-opacity="0.35"/>
      <stop offset="1" stop-color="#56E9F7" stop-opacity="0"/>
    </radialGradient>
    <filter id="blur" x="-80%" y="-80%" width="260%" height="260%">
      <feGaussianBlur stdDeviation="28"/>
    </filter>
    <filter id="symbolGlow" x="-60%" y="-60%" width="220%" height="220%">
      <feGaussianBlur stdDeviation="8" result="blur"/>
      <feColorMatrix in="blur" type="matrix" values="1 0 0 0 0  0 1 0 0 0.85  0 0 1 0 0.95  0 0 0 0.9 0"/>
    </filter>
  </defs>

  <rect width="512" height="512" rx="124" fill="url(#bg)"/>
  <path d="M112 0h20v512h-20zM172 0h12v512h-12zM332 0h14v512h-14zM394 0h10v512h-10z" fill="#B5F9FF" fill-opacity="0.08"/>
  <circle cx="256" cy="248" r="170" fill="url(#glow)"/>
  <circle cx="256" cy="248" r="98" fill="url(#core)" filter="url(#blur)"/>

  <g opacity="0.95">
    <g filter="url(#symbolGlow)">
      <rect x="128" y="138" width="84" height="236" rx="42" fill="url(#brand)"/>
      <rect x="128" y="138" width="208" height="84" rx="42" fill="url(#brand)"/>
      <rect x="128" y="216" width="206" height="84" rx="42" fill="url(#brand)"/>
      <circle cx="356" cy="258" r="86" fill="url(#brand)"/>
    </g>
    <rect x="128" y="138" width="84" height="236" rx="42" fill="url(#brand)"/>
    <rect x="128" y="138" width="208" height="84" rx="42" fill="url(#brand)"/>
    <rect x="128" y="216" width="206" height="84" rx="42" fill="url(#brand)"/>
    <circle cx="356" cy="258" r="86" fill="url(#brand)"/>
    <circle cx="356" cy="258" r="55" fill="#0A3145"/>
    <path d="M340 224 394 258 340 292Z" fill="url(#brand)"/>
    <path d="M150 346c38-16 67-12 98 10-34 3-63 16-93 38-18 0-32-5-43-15 10-11 22-22 38-33Z" fill="#0579E2" fill-opacity="0.96"/>
    <rect x="128" y="138" width="84" height="236" rx="42" stroke="#D7FEFF" stroke-opacity="0.36" stroke-width="4"/>
    <rect x="128" y="138" width="208" height="84" rx="42" stroke="#D7FEFF" stroke-opacity="0.34" stroke-width="4"/>
    <rect x="128" y="216" width="206" height="84" rx="42" stroke="#D7FEFF" stroke-opacity="0.3" stroke-width="4"/>
    <circle cx="356" cy="258" r="86" stroke="#D7FEFF" stroke-opacity="0.45" stroke-width="4"/>
  </g>
</svg>
